<svg width="21" height="21" viewBox="0 0 21 21" fill="none" xmlns="http://www.w3.org/2000/svg">
<path d="M20.6049 19.122L16.7306 15.279C18.2345 13.4039 18.9628 11.0238 18.7657 8.62819C18.5687 6.23258 17.4612 4.0035 15.6712 2.39932C13.8811 0.795135 11.5444 -0.0622291 9.14159 0.00352029C6.73879 0.0692697 4.45249 1.05313 2.75281 2.75281C1.05313 4.45249 0.0692697 6.73879 0.00352029 9.14159C-0.0622291 11.5444 0.795135 13.8811 2.39932 15.6712C4.0035 17.4612 6.23258 18.5687 8.62819 18.7657C11.0238 18.9628 13.4039 18.2345 15.279 16.7306L19.122 20.5736C19.2191 20.6715 19.3346 20.7492 19.4619 20.8022C19.5891 20.8552 19.7256 20.8825 19.8635 20.8825C20.0013 20.8825 20.1378 20.8552 20.2651 20.8022C20.3923 20.7492 20.5078 20.6715 20.6049 20.5736C20.7931 20.3789 20.8984 20.1186 20.8984 19.8478C20.8984 19.577 20.7931 19.3168 20.6049 19.122ZM9.4205 16.7306C7.97471 16.7306 6.56138 16.3019 5.35924 15.4986C4.1571 14.6954 3.22015 13.5537 2.66687 12.2179C2.11358 10.8822 1.96882 9.41239 2.25088 7.99438C2.53294 6.57636 3.22916 5.27383 4.25149 4.25149C5.27383 3.22916 6.57636 2.53294 7.99438 2.25088C9.41239 1.96882 10.8822 2.11358 12.2179 2.66687C13.5537 3.22015 14.6954 4.1571 15.4986 5.35924C16.3019 6.56138 16.7306 7.97471 16.7306 9.4205C16.7306 11.3593 15.9604 13.2186 14.5895 14.5895C13.2186 15.9604 11.3593 16.7306 9.4205 16.7306Z" fill="#03063A"/>
</svg>
